<svg xmlns="http://www.w3.org/2000/svg" xmlns:xlink="http://www.w3.org/1999/xlink" version="1.1" viewBox="0 0 96 120" x="0px" y="0px"><path d="M48 70c-0.332 0-0.66-0.084-0.956-0.248l-44-24c-0.972-0.528-1.328-1.74-0.8-2.712 0.528-0.968 1.752-1.328 2.712-0.8l43.044 23.48 43.048-23.48c0.964-0.528 2.18-0.168 2.712 0.8 0.524 0.972 0.172 2.184-0.8 2.712l-44 24c-0.3 0.164-0.628 0.248-0.96 0.248z" fill="#000000"/><path d="M48 54c-0.332 0-0.66-0.084-0.956-0.248l-44-24c-0.972-0.528-1.328-1.74-0.8-2.712 0.528-0.968 1.752-1.328 2.712-0.8l43.044 23.48 43.048-23.48c0.964-0.528 2.18-0.168 2.712 0.8 0.524 0.972 0.172 2.184-0.8 2.712l-44 24c-0.3 0.164-0.628 0.248-0.96 0.248z" fill="#000000"/><text x="0" y="111" fill="#000000" font-size="5px" font-weight="bold" font-family="'Helvetica Neue', Helvetica, Arial-Unicode, Arial, Sans-serif">Created by iconsmind.com</text><text x="0" y="116" fill="#000000" font-size="5px" font-weight="bold" font-family="'Helvetica Neue', Helvetica, Arial-Unicode, Arial, Sans-serif">from the Noun Project</text></svg>