<?xml version="1.0" encoding="UTF-8"?>
<svg width="208px" height="53px" viewBox="0 0 208 53" version="1.1" xmlns="http://www.w3.org/2000/svg" xmlns:xlink="http://www.w3.org/1999/xlink">
    <!-- Generator: Sketch 45.2 (43514) - http://www.bohemiancoding.com/sketch -->
    <title>Desktop</title>
    <desc>Created with Sketch.</desc>
    <defs></defs>
    <g id="Page-1" stroke="none" stroke-width="1" fill="none" fill-rule="evenodd">
        <g id="Desktop" fill="#000000">
            <g id="." transform="translate(193.000000, 39.000000)">
                <path d="M7.47159233,0.831586571 C9.34659175,0.831586571 10.9051616,1.39281704 12.1473488,2.51529482 C13.3895359,3.6377726 14.0106201,5.07334106 14.0106201,6.82204329 C14.0106201,8.57074551 13.3895359,10.006314 12.1473488,11.1287918 C10.9051616,12.2512695 9.34659175,12.8125 7.47159233,12.8125 C5.57315542,12.8125 4.00872624,12.2453618 2.77825787,11.1110685 C1.54778951,9.97677517 0.932564549,8.5471144 0.932564549,6.82204329 C0.932564549,5.09697217 1.54778951,3.6673114 2.77825787,2.53301806 C4.00872624,1.39872473 5.57315542,0.831586571 7.47159233,0.831586571 Z" id="Path"></path>
            </g>
            <g id="Z" transform="translate(146.000000, -1.000000)">
                <polygon id="Path" points="15.6780484 42.8520365 40.1466685 42.8520365 40.1466685 52.4225886 0.27969261 52.4225886 0.27969261 45.8649881 24.6780006 10.4184986 0.139068356 10.4184986 0.139068356 0.8125 39.900576 0.8125 39.900576 7.1928681"></polygon>
            </g>
            <g id="N" transform="translate(75.000000, -1.000000)">
                <polygon id="X" points="43.1923419 52.4225886 30.9228758 52.4225886 12.7823471 20.3080692 12.7823471 52.4225886 0.442568828 52.4225886 0.442568828 0.8125 12.7823471 0.8125 30.8877197 32.9270194 30.8877197 0.8125 43.1923419 0.8125"></polygon>
            </g>
            <g id="i" transform="translate(52.000000, -1.000000)">
                <polygon id="Path" points="12.9144998 52.4225886 0.609877619 52.4225886 0.609877619 0.8125 12.9144998 0.8125"></polygon>
            </g>
            <g id="X" transform="translate(0.000000, -1.000000)">
                <polygon id="Path" points="22.9569101 17.9686009 31.3240532 0.8125 45.4216346 0.8125 31.1131168 26.4048654 45.8083513 52.4225886 31.5701456 52.4225886 22.9569101 34.9474693 14.3436746 52.4225886 0.140625 52.4225886 14.8007034 26.4048654 0.527341697 0.8125 14.589767 0.8125"></polygon>
            </g>
        </g>
    </g>
</svg>